<?xml version="1.0" standalone="no"?>
<!DOCTYPE svg PUBLIC "-//W3C//DTD SVG 20010904//EN"
 "http://www.w3.org/TR/2001/REC-SVG-20010904/DTD/svg10.dtd">
<svg version="1.0" xmlns="http://www.w3.org/2000/svg"
 width="500.000000pt" height="500.000000pt" viewBox="0 0 500.000000 500.000000"
 preserveAspectRatio="xMidYMid meet">

<g transform="translate(0.000000,500.000000) scale(0.100000,-0.100000)"
fill="#000000" stroke="none">
<path d="M745 2675 c-54 -19 -75 -48 -75 -100 0 -57 31 -87 113 -110 71 -20
87 -30 87 -56 0 -52 -74 -65 -135 -23 l-38 25 -21 -20 c-16 -17 -18 -25 -10
-39 29 -47 157 -71 220 -41 16 8 37 31 48 52 16 33 17 45 7 76 -15 52 -35 67
-115 88 -74 19 -99 41 -80 71 15 24 88 28 121 6 25 -16 27 -16 44 7 24 31 24
32 -8 51 -42 24 -111 30 -158 13z"/>
<path d="M1125 2679 c-80 -18 -125 -86 -125 -189 0 -71 16 -114 57 -152 58
-56 181 -53 240 4 38 37 53 80 53 156 0 134 -95 210 -225 181z m116 -88 c27
-27 29 -35 29 -101 0 -66 -2 -74 -29 -101 -22 -21 -39 -29 -66 -29 -27 0 -44
8 -66 29 -27 27 -29 35 -29 101 0 66 2 74 29 101 22 21 39 29 66 29 27 0 44
-8 66 -29z"/>
<path d="M1855 2681 c-73 -18 -108 -56 -126 -137 -22 -97 13 -194 83 -230 40
-21 136 -21 176 0 116 60 119 291 4 350 -36 18 -100 26 -137 17z m97 -72 c46
-24 63 -135 30 -199 -33 -66 -131 -66 -164 0 -32 63 -16 173 29 199 24 14 79
14 105 0z"/>
<path d="M2221 2680 c-54 -13 -86 -52 -86 -106 0 -38 5 -50 28 -70 15 -13 46
-28 70 -34 82 -21 97 -30 97 -60 0 -15 -7 -33 -15 -40 -21 -18 -92 -6 -119 19
-28 26 -34 26 -56 -1 -17 -22 -17 -24 -2 -42 35 -38 77 -50 170 -47 49 1 102
56 102 105 0 77 -27 100 -157 135 -35 10 -43 16 -43 34 0 13 5 28 12 35 17 17
73 15 109 -4 29 -14 32 -14 45 3 20 27 17 41 -13 57 -38 19 -101 26 -142 16z"/>
<path d="M1430 2490 l0 -190 125 0 125 0 0 30 0 30 -85 0 -85 0 0 160 0 160
-40 0 -40 0 0 -190z"/>
<path d="M2480 2490 l0 -190 40 0 40 0 0 70 0 70 45 0 c117 0 181 79 141 173
-21 52 -62 67 -176 67 l-90 0 0 -190z m184 114 c21 -20 20 -63 -1 -86 -11 -12
-30 -18 -60 -18 l-43 0 0 60 0 60 44 0 c27 0 51 -6 60 -16z"/>
<path d="M2830 2490 l0 -190 35 0 35 0 0 85 0 85 90 0 90 0 0 -85 0 -85 35 0
35 0 0 190 0 190 -35 0 -35 0 0 -70 0 -70 -90 0 -90 0 0 70 0 70 -35 0 -35 0
0 -190z"/>
<path d="M3250 2490 l0 -190 130 0 130 0 0 30 0 29 -92 3 -93 3 0 50 0 50 78
3 77 3 0 29 0 30 -81 0 -80 0 3 43 3 42 88 3 87 3 0 29 0 30 -125 0 -125 0 0
-190z"/>
<path d="M3580 2490 l0 -190 35 0 35 0 0 80 0 80 33 0 c47 0 58 -11 82 -86
l22 -69 42 -3 41 -3 -26 73 c-14 40 -35 82 -45 94 -19 20 -19 21 5 33 63 34
57 139 -9 169 -14 7 -68 12 -120 12 l-95 0 0 -190z m185 106 c16 -23 11 -54
-9 -68 -6 -4 -32 -8 -58 -8 l-48 0 0 50 0 50 50 0 c41 0 52 -4 65 -24z"/>
<path d="M3930 2490 l0 -190 130 0 130 0 0 30 0 30 -90 0 -90 0 0 55 0 55 75
0 75 0 0 30 0 30 -75 0 -75 0 0 45 0 45 90 0 90 0 0 30 0 30 -130 0 -130 0 0
-190z"/>
<path d="M4252 2368 c-27 -27 -6 -68 34 -68 28 0 46 23 42 52 -2 17 -10 24
-33 26 -17 2 -36 -3 -43 -10z"/>
</g>
</svg>
